# xmcd
#
# Track frame offsets:
#	150
#	18020
#	36982
#	55381
#	71562
#	88573
#	105838
#	127674
#	144595
#	163365
#	182631
#
# Disc length: 2697 seconds
#
# Revision: 1
# Processed by: cddbd v1.5.2PL0 Copyright (c) Steve Scherf et al.
# Submitted via: CDmax 2.0
#
DISCID=8a0a870b
DTITLE=Drew Nelson - Just Because
DYEAR=2001
DGENRE=Blues
TTITLE0=Ludella
TTITLE1=I Shall Be Released
TTITLE2=Razor Blade
TTITLE3=Tailspin
TTITLE4=Plenty of Nothin
TTITLE5=Hawk My Ring
TTITLE6=I'd Do Anything
TTITLE7=Funk E Thaing
TTITLE8=Just Because
TTITLE9=Wee Wee Baby
TTITLE10=Comin' On Home
EXTD=
EXTT0=
EXTT1=
EXTT2=
EXTT3=
EXTT4=
EXTT5=
EXTT6=
EXTT7=
EXTT8=
EXTT9=
EXTT10=
PLAYORDER=
